<svg height="512" viewBox="0 0 512 512" width="512" xmlns="http://www.w3.org/2000/svg"><circle cx="208" cy="208" r="8"/><circle cx="304" cy="208" r="8"/><path d="m168 192v3.055l9.891 4.945h7.583a23.96 23.96 0 0 1 22.526-16h-32a8.005 8.005 0 0 0 -8 8z"/><path d="m262.68 160h-19.367l-8 8h27.367z"/><path d="m291.719 160h-13.039v8h18.375z"/><path d="m390.227 106.2c-28.063-44.39-73.836-71.359-125.579-73.976-2.859-.146-5.742-.224-8.648-.224s-5.789.078-8.656.219c-51.735 2.617-97.508 29.586-125.571 73.976a169.323 169.323 0 0 0 -13.14 155.094 451.046 451.046 0 0 0 63.067 107.328l84.3 106.492 84.305-106.492a451.046 451.046 0 0 0 63.062-107.328 169.323 169.323 0 0 0 -13.14-155.089zm-134.227 221.8c-74.992 0-136-61.008-136-136s61.008-136 136-136 136 61.008 136 136-61.008 136-136 136z"/><path d="m256 72a120 120 0 1 0 120 120 120.131 120.131 0 0 0 -120-120zm104 104v16a8.006 8.006 0 0 1 -.836 3.555 36.644 36.644 0 0 1 -32.628 20.413 23.855 23.855 0 0 1 -45.061.032h-50.949a23.856 23.856 0 0 1 -45.051 0h-9.475a8 8 0 0 1 -3.578-.844l-16-8a8 8 0 0 1 -4.422-7.156v-8a24.027 24.027 0 0 1 24-24h36.688l21.656-21.656a7.994 7.994 0 0 1 5.656-2.344h56a8 8 0 0 1 6.656 3.562l13.625 20.438h35.719a8 8 0 0 1 8 8z"/><path d="m304 184a23.961 23.961 0 0 1 22.509 15.945 20.754 20.754 0 0 0 17.491-9.976v-5.969z"/><path d="m208 184a23.96 23.96 0 0 1 22.526 16h50.948a23.96 23.96 0 0 1 22.526-16z"/></svg>