<svg id="icons" enable-background="new 0 0 64 64" height="512" viewBox="0 0 64 64" width="512" xmlns="http://www.w3.org/2000/svg"><g><g><path d="m3 13.5c-1.1 0-2 .9-2 2v5 4 4 8c0 1.1.9 2 2 2h45v-25z" fill="#ffce54"/></g><g><path d="m63 40.5c0 1.1-.9 2-2 2h-13v-4h13c1.1 0 2-.9 2-2z" fill="#545c66"/></g><g><path d="m63 28.5v8c0 1.1-.9 2-2 2h-13v-25h13c1.1 0 2 .9 2 2v5 4z" fill="#656d78"/></g><g><g><path d="m18 22.5h3v3h-3z" fill="#656d78"/></g><g><path d="m6 22.5h3v3h-3z" fill="#656d78"/></g><g><path d="m12 22.5h3v3h-3z" fill="#656d78"/></g><g><path d="m9 19.5h3v3h-3z" fill="#656d78"/></g><g><path d="m15 19.5h3v3h-3z" fill="#656d78"/></g></g><g><path d="m63 48.5c0 1.1-.9 2-2 2h-13v-4h13c1.1 0 2-.9 2-2z" fill="#545c66"/></g><g><path d="m3 46.5h45v4h-45c-1.1 0-2-.9-2-2v-4c0 1.1.9 2 2 2z" fill="#f6bb42"/></g><g><path d="m63 44.5c0 1.1-.9 2-2 2h-13v-4h13c1.1 0 2-.9 2-2z" fill="#656d78"/></g><g><path d="m3 42.5h45v4h-45c-1.1 0-2-.9-2-2v-4c0 1.1.9 2 2 2z" fill="#ffce54"/></g><g><path d="m3 38.5h45v4h-45c-1.1 0-2-.9-2-2v-4c0 1.1.9 2 2 2z" fill="#f6bb42"/></g><g><path d="m56.999 34.501c-.553 0-1-.447-1-1v-15.002c0-.553.447-1 1-1s1 .447 1 1v15.002c0 .553-.447 1-1 1z" fill="#545c66"/></g><g><path d="m53.999 34.501c-.553 0-1-.447-1-1v-15.002c0-.553.447-1 1-1s1 .447 1 1v15.002c0 .553-.447 1-1 1z" fill="#545c66"/></g><g><g><path d="m31.499 25.499c-1.93 0-3.5-1.57-3.5-3.5s1.57-3.5 3.5-3.5 3.5 1.57 3.5 3.5-1.57 3.5-3.5 3.5zm0-5c-.827 0-1.5.673-1.5 1.5s.673 1.5 1.5 1.5 1.5-.673 1.5-1.5-.673-1.5-1.5-1.5z" fill="#fff"/></g><g><path d="m39.501 33.501c-1.93 0-3.5-1.57-3.5-3.5s1.57-3.5 3.5-3.5 3.5 1.57 3.5 3.5-1.57 3.5-3.5 3.5zm0-5c-.827 0-1.5.673-1.5 1.5s.673 1.5 1.5 1.5 1.5-.673 1.5-1.5-.673-1.5-1.5-1.5z" fill="#fff"/></g><g><path d="m29 33.5c-.256 0-.512-.098-.707-.293-.391-.391-.391-1.023 0-1.414l13.001-13.001c.391-.391 1.023-.391 1.414 0s.391 1.023 0 1.414l-13.001 13.001c-.195.195-.451.293-.707.293z" fill="#fff"/></g></g><g><path d="m21.999 30.501h-14.999c-.553 0-1-.447-1-1s.447-1 1-1h14.999c.553 0 1 .447 1 1s-.447 1-1 1z" fill="#f6bb42"/></g><g><path d="m15 33.501h-8c-.553 0-1-.447-1-1s.447-1 1-1h8c.553 0 1 .447 1 1s-.447 1-1 1z" fill="#f6bb42"/></g></g></svg>