<svg id="icons" enable-background="new 0 0 64 64" height="512" viewBox="0 0 64 64" width="512" xmlns="http://www.w3.org/2000/svg"><g><g><path d="m61 13h-58c-1.1 0-2 .9-2 2v34c0 1.1.9 2 2 2h58c1.1 0 2-.9 2-2v-34c0-1.1-.9-2-2-2z" fill="#ffce54"/></g><g><path d="m15 30v1.99c0 2.05 1.24 3.819 3.01 4.59l-.01.02v2.4h-2c-1.65 0-3 1.34-3 3v.95c-3.61-2.31-6-6.35-6-10.95 0-7.18 5.83-13 13-13 7.18 0 13 5.82 13 13 0 4.6-2.39 8.64-6 10.95v-.95c0-1.66-1.34-3-3-3h-2v-2.42c1.76-.78 3-2.54 3-4.59v-1.99-2-.01l1-.989-6-2-6 2 1 .999z" fill="#434a54"/></g><g><path d="m47 21h3v3h-3z" fill="#656d78"/></g><g><path d="m50 24h3v3h-3z" fill="#656d78"/></g><g><path d="m44 24h3v3h-3z" fill="#656d78"/></g><g><path d="m38 24h3v3h-3z" fill="#656d78"/></g><g><path d="m41 21h3v3h-3z" fill="#656d78"/></g><g><g><path d="m14 27.001 6-2 6 2-1 1.99v.01h-10z" fill="#545c66"/></g><g><path d="m22 39v1l-2-1-2 1v-1-1.399l.01-.02c.61.26 1.28.41 1.99.41s1.39-.15 2-.41z" fill="#f5f7fa"/></g><g><path d="m15 31.001s1.67 1 5 1c3.18 0 4.85-.92 5-1v1.99c0 2.05-1.24 3.81-3 4.59-.61.26-1.29.41-2 .41s-1.38-.15-1.99-.41c-1.77-.771-3.01-2.54-3.01-4.59z" fill="#eac6bb"/></g><g><path d="m13 42c0-1.66 1.35-3 3-3h2v1l2-1 2 1v-1h2c1.66 0 3 1.34 3 3v.95c-2.02 1.3-4.42 2.05-7 2.05-2.57 0-4.98-.75-7-2.05z" fill="#e6e9ed"/></g><g><path d="m20 32.001c-3.33 0-5-1-5-1v-2h10v2c-.15.08-1.82 1-5 1z" fill="#656d78"/></g></g><g><path d="m56.999 38.008h-17.999c-.553 0-1-.447-1-1s.447-1 1-1h17.999c.553 0 1 .447 1 1s-.447 1-1 1z" fill="#f6bb42"/></g><g><path d="m56.999 41.006h-17.999c-.553 0-1-.447-1-1s.447-1 1-1h17.999c.553 0 1 .447 1 1s-.447 1-1 1z" fill="#f6bb42"/></g><g><path d="m49.022 44.004h-10.022c-.553 0-1-.447-1-1s.447-1 1-1h10.022c.553 0 1 .447 1 1s-.447 1-1 1z" fill="#f6bb42"/></g><g><path d="m39 33c-.553 0-1-.447-1-1v-1c0-.553.447-1 1-1s1 .447 1 1v1c0 .553-.447 1-1 1z" fill="#f5f7fa"/></g><g><path d="m42 33c-.553 0-1-.447-1-1v-1c0-.553.447-1 1-1s1 .447 1 1v1c0 .553-.447 1-1 1z" fill="#f5f7fa"/></g><g><path d="m45 33c-.553 0-1-.447-1-1v-1c0-.553.447-1 1-1s1 .447 1 1v1c0 .553-.447 1-1 1z" fill="#f5f7fa"/></g><g><path d="m48 33c-.553 0-1-.447-1-1v-1c0-.553.447-1 1-1s1 .447 1 1v1c0 .553-.447 1-1 1z" fill="#f5f7fa"/></g><g><path d="m51 33c-.553 0-1-.447-1-1v-1c0-.553.447-1 1-1s1 .447 1 1v1c0 .553-.447 1-1 1z" fill="#f5f7fa"/></g><g><path d="m54 33c-.553 0-1-.447-1-1v-1c0-.553.447-1 1-1s1 .447 1 1v1c0 .553-.447 1-1 1z" fill="#f5f7fa"/></g><g><path d="m57 33c-.553 0-1-.447-1-1v-1c0-.553.447-1 1-1s1 .447 1 1v1c0 .553-.447 1-1 1z" fill="#f5f7fa"/></g></g></svg>