<svg id="Layer_1" enable-background="new 0 0 50 50" height="512" viewBox="0 0 50 50" width="512" xmlns="http://www.w3.org/2000/svg"><g><g><g fill="#696967"><path d="m48.8667 20.7503c-.2887 1.003-2.7652.6752-2.7652.6752l-.7396.0107s-.5037.0858-.4126.6163c.0858.5305-1.8918-.1501-1.8757-.2572.0107-.1072.9325-1.4845.9325-1.4845s.6002.0054.5895-.3323c-.0054-.3376-.209-1.8757.2197-1.9882.4233-.1125 5.018-.5979 4.0514 2.76z"/><path d="m1.1333 20.7503c.2887 1.003 2.7652.6752 2.7652.6752l.7396.0107s.5037.0858.4126.6163c-.0858.5305 1.8918-.1501 1.8757-.2572-.0107-.1072-.9325-1.4845-.9325-1.4845s-.6002.0054-.5895-.3323c.0054-.3376.209-1.8757-.2197-1.9882-.4233-.1125-5.018-.5979-4.0514 2.76z"/><path d="m47.9074 37.7599v6.9561c0 .268-.2197.4877-.4876.4877h-5.4395c-.268 0-.4877-.2197-.4877-.4877v-6.9561z"/><path d="m8.2682 37.7599v6.9561c0 .268-.2197.4877-.4876.4877h-5.4395c-.268 0-.4877-.2197-.4877-.4877v-6.9561z"/><path d="m34.5205 11.4094-9.8393-.2304-9.8392.2304.7717-2.7707c.1179-.4234.3697-.7985.7181-1.0611.1768-.134.3751-.2412.5841-.3108l.3376-.1125c.7503-.2465 1.3505-.82 1.6345-1.5541l.059-.1608c.0964-.2358.2733-.4341.4984-.5413.1393-.0697.2894-.1018.4395-.1018h9.5927c.1501 0 .3001.0322.4395.1018.225.1072.4019.3055.4984.5413l.059.1608c.284.7342.8842 1.3076 1.6345 1.5541l.3376.1125c.209.0697.4073.1769.5842.3108.3483.2626.6001.6377.7181 1.0611z"/></g><g fill="#fff"><path d="m20.8935 7.3644v3.0088h-.6006v-3.0088h-1.0793v-.5498h2.7592v.5499h-1.0793z"/><path d="m22.8483 9.5639-.356.8093h-.6415l1.5678-3.5586h.6415l1.5678 3.5586h-.6415l-.356-.8093zm1.5376-.5552-.6465-1.466-.6465 1.466z"/><path d="m28.2293 10.3732-.8756-1.3391h-.0254l-.8756 1.3391h-.748l1.2217-1.8276-1.1357-1.731h.7437l.7938 1.2016h.0254l.7945-1.2016h.743l-1.135 1.731 1.2217 1.8276z"/><path d="m29.5483 6.8146h.6006v3.5586h-.6006z"/></g><path d="m48.2076 31.5809-.1822 5.6324c0 1.1415-.702 1.7149-1.6506 2.0847l-6.9454.1286c-2.2386.0284-2.5996-1.1093-4.791-1.1093h-19.9143c-2.1969 0-2.5468 1.1378-4.791 1.1093l-6.9454-.1286c-.9485-.3698-1.6506-.9432-1.6506-2.0847l-.1823-5.6324c-.5144-3.1189.2358-5.9325 2.5027-8.3923.3001-.3269.5574-.6913.7396-1.0986 1.6345-3.6174 3.5584-6.806 5.9593-9.3033.6913-.7181 1.6185-1.1629 2.6099-1.2755 4.0676-.4448 19.3623-.4448 23.4298 0 .9915.1125 1.9186.5573 2.6099 1.2755 2.4009 2.4973 4.3247 5.686 5.9592 9.3033.1823.4073.4395.7717.7396 1.0986 2.267 2.4599 3.0172 5.2734 2.5028 8.3923z" fill="#ffca67"/><path d="m41.2998 20.3213h-32.7011c-.5735 0-.9218-.6056-.611-1.0665l3.8532-5.7503c.1179-.1715.3162-.2894.5359-.3162 8.3548-.9164 16.3719-.8414 25.1394.0054.2197.0214.4234.1393.5413.3162l3.8531 5.7449c.3109.4609-.0321 1.0665-.6108 1.0665z" fill="#59b1e3"/><g fill="#e9715f"><path d="m45.2482 34.6621v1.0992c0 .4823-.391.8732-.8732.8732h-1.3831c-.4823 0-.8732-.391-.8732-.8732v-1.0992c0-.4823.391-.8732.8732-.8732h1.3831c.4822 0 .8732.391.8732.8732z"/><path d="m7.2439 34.6621v1.0992c0 .4823-.391.8732-.8732.8732h-1.3831c-.4823 0-.8732-.391-.8732-.8732v-1.0992c0-.4823.391-.8732.8732-.8732h1.3831c.4823 0 .8732.391.8732.8732z"/></g><g fill="#fff"><g><path d="m43.8513 26.6958.606 2.4517c.1173.4743-.1201.9659-.5685 1.1599-1.1879.5138-3.2169 1.0541-5.2066 1.5931-.4858.1316-1.0114-.1474-1.1197-.6388-.0011-.005-.0022-.0099-.0032-.015.061-.7953.3416-1.4895.8435-2.0821.0454-.0536.0951-.0998.1508-.1426.639-.4918 4.821-3.6455 5.2977-2.3262z"/><path d="m44.7735 26.1539.9372 3.783c0-.0001 1.4825-2.7777-.9372-3.783z"/></g><g><path d="m5.5111 26.6958-.606 2.4517c-.1172.4743.1201.9659.5685 1.1599 1.1879.5138 3.217 1.0541 5.2066 1.5931.4858.1316 1.0114-.1474 1.1197-.6388.0011-.005.0022-.0099.0032-.015-.061-.7953-.3416-1.4895-.8435-2.0821-.0454-.0536-.0951-.0998-.1508-.1426-.639-.4918-4.821-3.6455-5.2977-2.3262z"/><path d="m4.589 26.1539-.9372 3.783c0-.0001-1.4825-2.7777.9372-3.783z"/></g></g><path d="m35.1426 27.8045-1.6451 3.5779c-.2148.4672-.682.7666-1.1962.7666h-15.2401c-.5142 0-.9814-.2994-1.1962-.7666l-1.6451-3.5779c-.4011-.8723.2362-1.8667 1.1962-1.8667h18.5303c.96 0 1.5973.9944 1.1962 1.8667z" fill="#696967"/><path d="m31.3265 34.2136v1.9963c0 .2345-.1901.4247-.4247.4247h-12.4411c-.2345 0-.4247-.1901-.4247-.4247v-1.9963c0-.2345.1901-.4247.4247-.4247h12.4412c.2345 0 .4246.1901.4246.4247z" fill="#696967"/></g></g></svg>